<svg width="128" height="128" xmlns="http://www.w3.org/2000/svg" preserveAspectRatio="xMidYMid meet" version="1.0">

 <g>
  <title>Layer 1</title>
  <g id="svg_1" fill="#000000" transform="translate(0, 39) scale(0.1, -0.1)">
   <path fill="#172991" id="svg_2" d="m457.28819,38.21197c-135.95126,-55.87038 -266.31548,-147.12533 -329.63524,-230.9309c-67.04446,-85.66792 -70.76915,-227.20621 -11.17408,-286.80128c46.55865,-48.421 78.21853,-35.38457 230.9309,96.84199l104.29138,89.39261l-27.93519,-85.66792c-31.65988,-96.84199 -16.76111,-141.53829 50.28334,-150.85002c50.28334,-7.44938 169.47348,70.76915 234.65559,154.57472l46.55865,63.31976l-83.80557,-48.421c-68.9068,-37.24692 -89.39261,-42.83396 -111.74076,-24.2105c-40.97161,33.52223 -35.38457,68.9068 29.79754,173.19818c40.97161,65.18211 54.00803,106.15372 44.6963,137.8136c-5.58704,26.07284 -1.86235,57.73273 11.17408,72.63149c16.76111,20.48581 16.76111,33.52223 -1.86235,54.00803c-31.65988,37.24692 -65.18211,35.38457 -186.2346,-14.89877zm55.87038,-147.12533c0,-33.52223 -87.53026,-128.50187 -191.82164,-206.7204c-137.8136,-104.29138 -208.58275,-89.39261 -150.85002,33.52223c27.93519,59.59507 137.8136,154.57472 212.30744,182.50991c52.14569,18.62346 130.36422,13.03642 130.36422,-9.31173z"/>
   <path fill="#172991" id="svg_3" d="m1043.92718,17.72617c-122.91484,-55.87038 -288.66363,-281.21424 -288.66363,-396.6797c0,-68.9068 39.10927,-132.22657 96.84199,-156.43706c48.421,-18.62346 67.04446,-16.76111 135.95126,16.76111c96.84199,46.55865 232.79325,163.88645 232.79325,201.13337c0,18.62346 -26.07284,7.44938 -76.35619,-29.79754c-100.56668,-72.63149 -199.27102,-91.25495 -234.65559,-46.55865c-33.52223,46.55865 -31.65988,102.42903 3.72469,102.42903c50.28334,0 173.19818,72.63149 242.10498,139.67595c132.22657,132.22657 57.73273,243.96732 -111.74076,169.47348zm65.18211,-81.94322c0,-35.38457 -68.9068,-108.01607 -154.57472,-162.0241c-65.18211,-40.97161 -80.08088,-27.93519 -44.6963,40.97161c63.31976,121.05249 199.27102,204.85806 199.27102,121.05249z"/>
  </g>
 </g>
</svg>